<svg version="1.1" viewBox="0 0 114 20" height="20" width="114" xmlns:xlink="http://www.w3.org/1999/xlink" xmlns="http://www.w3.org/2000/svg" class="logo_vibe">
    <title xmlns="http://www.w3.org/2000/svg">6AD91139-AE36-42B2-A37A-E2BB7C2ED94C</title>
    <defs xmlns="http://www.w3.org/2000/svg">
        <polygon id="path-1" points="0.132409069 0.189678462 19.2030957 0.189678462 19.2030957 17.5969231 0.132409069 17.5969231"></polygon>
        <polygon id="path-3" points="0.168112 0.189678462 4.54463046 0.189678462 4.54463046 17.4958226 0.168112 17.4958226"></polygon>
        <polygon id="path-5" points="0.152336154 0.189678462 15.4086638 0.189678462 15.4086638 17.4957203 0.152336154 17.4957203"></polygon>
        <polygon id="path-7" points="0.199479538 0.189678462 13.3051154 0.189678462 13.3051154 17.4958226 0.199479538 17.4958226"></polygon>
    </defs>
    <g xmlns="http://www.w3.org/2000/svg" id="Page-1" stroke="none" stroke-width="1" fill="none" fill-rule="evenodd">
        <g id="바이브웹_PC_leftmenu" transform="translate(-20.000000, -26.000000)">
            <g id="Group" transform="translate(20.000000, 26.000000)">
                <g id="vibe_logo" transform="translate(0.000000, -0.000000)">
                    <polygon id="Fill-1" fill="#FFFFFF" points="6.16068277 5.02334862 6.16068277 9.34503015 3.19907969 5.02334862 -8.18461538e-05 5.02334862 -8.18461538e-05 13.5928455 3.18925815 13.5928455 3.18925815 9.26727631 6.14983815 13.5928455 9.34981815 13.5928455 9.34981815 5.02334862"></polygon>
                    <g id="Group-22" transform="translate(10.026154, 0.014998)">
                        <path d="M31.9866023,8.62576615 C31.8001977,8.77697692 31.4419162,8.85145692 31.1450192,8.85145692 L30.4607854,8.85145692 L30.4607854,7.16297077 L31.1321285,7.16297077 C31.4543977,7.16297077 31.8212731,7.24072462 31.9992885,7.39377692 C32.1764854,7.54826154 32.2597638,7.75717385 32.2597638,8.02337846 C32.2597638,8.27566923 32.1723931,8.47721538 31.9866023,8.62576615 L31.9866023,8.62576615 Z M33.5531377,10.3721585 C34.6862977,10.0558231 35.4173885,9.23777077 35.4173885,7.92414 C35.4173885,5.71674923 33.6660854,5.00837077 31.3576146,5.00837077 L27.3725254,5.00837077 L27.3725254,13.5776631 L30.5626838,13.5776631 L30.5626838,10.9008846 L32.46663,13.5776631 L36.1323146,13.5776631 L33.5531377,10.3721585 Z" id="Fill-2" fill="#FFFFFF"></path>
                        <polygon id="Fill-4" fill="#FFFFFF" points="19.59888 5.00843215 26.0651354 5.00843215 26.0651354 7.23935369 22.7575277 7.23935369 22.7575277 8.24708446 25.80466 8.24708446 25.80466 10.3548275 22.7575277 10.3548275 22.7575277 11.3461891 26.1653969 11.3461891 26.1653969 13.5777245 19.59888 13.5777245"></polygon>
                        <path d="M4.38930692,10.4766965 L5.13901769,7.65013954 L5.22700231,7.65013954 L5.97773615,10.4766965 L4.38930692,10.4766965 Z M7.00183615,5.00835031 L3.36438846,5.00835031 L0.00828692308,13.5776426 L3.55570385,13.5776426 L3.86590077,12.457578 L6.50114231,12.457578 L6.81154385,13.5776426 L10.3585515,13.5776426 L7.00183615,5.00835031 Z" id="Fill-6" fill="#FFFFFF"></path>
                        <polygon id="Fill-8" fill="#FFFFFF" points="15.436246 5.00843215 13.8639814 10.1737429 13.7753829 10.1737429 12.204346 5.00843215 8.72588446 5.00843215 12.3136106 13.5777245 15.3255491 13.5777245 18.9149122 5.00843215"></polygon>
                        <g id="Group-12" transform="translate(40.513846, 0.000000)">
                            <mask id="mask-2" fill="white">
                                <use xmlns:xlink="http://www.w3.org/1999/xlink" xlink:href="#path-1"></use>
                            </mask>
                            <g id="Clip-11"></g>
                            <path d="M7.40558323,17.4152451 L0.157287846,0.609365077 C0.0717586154,0.410888154 0.217240154,0.189494308 0.433518615,0.189494308 L4.59253092,0.189494308 C4.71345862,0.189494308 4.82272323,0.262132769 4.86958015,0.373648154 L9.66760631,11.7752266 L14.4654278,0.373648154 C14.5122848,0.262132769 14.621754,0.189494308 14.7426817,0.189494308 L18.9021032,0.189494308 C19.1179725,0.189494308 19.2636586,0.410683538 19.178334,0.608955846 L11.9545925,17.4150405 C11.9073263,17.5253282 11.7986755,17.5969435 11.6785663,17.5969435 L7.681814,17.5969435 C7.56170477,17.5969435 7.453054,17.5255328 7.40558323,17.4152451" id="Fill-10" fill="#FFFFFF" mask="url(#mask-2)"></path>
                        </g>
                        <g id="Group-15" transform="translate(62.407692, 0.000000)">
                            <mask id="mask-4" fill="white">
                                <use xmlns:xlink="http://www.w3.org/1999/xlink" xlink:href="#path-3"></use>
                            </mask>
                            <g id="Clip-14"></g>
                            <path d="M0.168112,17.195038 L0.168112,0.490238 C0.168112,0.324294923 0.302748923,0.189658 0.468896615,0.189658 L4.24384585,0.189658 C4.40978892,0.189658 4.54463046,0.324294923 4.54463046,0.490238 L4.54463046,17.195038 C4.54463046,17.3611857 4.40978892,17.4958226 4.24384585,17.4958226 L0.468896615,17.4958226 C0.302748923,17.4958226 0.168112,17.3611857 0.168112,17.195038" id="Fill-13" fill="#FFFFFF" mask="url(#mask-4)"></path>
                        </g>
                        <g id="Group-18" transform="translate(71.206154, 0.000000)">
                            <mask id="mask-6" fill="white">
                                <use xmlns:xlink="http://www.w3.org/1999/xlink" xlink:href="#path-5"></use>
                            </mask>
                            <g id="Clip-17"></g>
                            <path d="M8.02102538,7.19845108 C9.55809615,7.19845108 10.4755915,6.52669877 10.4755915,5.40151877 C10.4755915,4.06272031 9.14088538,3.78178338 8.02102538,3.78178338 L4.52865,3.78178338 L4.52865,7.19845108 L8.02102538,7.19845108 Z M8.62811923,13.8529526 C9.45988077,13.8529526 10.1029869,13.6823034 10.5394315,13.3448926 C10.9282008,13.0445172 11.1336346,12.6164618 11.1336346,12.1065603 C11.1336346,10.8307834 9.82614231,10.5627372 8.72940385,10.5627372 L4.52865,10.5627372 L4.52865,13.8529526 L8.62811923,13.8529526 Z M0.152336154,17.1949357 L0.152336154,0.490340308 C0.152336154,0.324192615 0.286973077,0.189555692 0.453120769,0.189555692 L8.70403154,0.189555692 C10.5281777,0.189555692 12.04049,0.620884923 13.0776854,1.43709569 C14.1060823,2.24634954 14.6497454,3.41613569 14.6497454,4.81959262 C14.6497454,6.49887108 13.7283623,8.01793569 12.3899731,8.577968 C14.22967,9.048788 15.4086638,10.6351711 15.4086638,12.6635234 C15.4086638,14.0978772 14.8377869,15.3092003 13.7578269,16.1659249 C12.6614977,17.0359495 11.0888238,17.4957203 9.21025,17.4957203 L0.453120769,17.4957203 C0.286973077,17.4957203 0.152336154,17.3610834 0.152336154,17.1949357 L0.152336154,17.1949357 Z" id="Fill-16" fill="#FFFFFF" mask="url(#mask-6)"></path>
                        </g>
                        <g id="Group-21" transform="translate(89.212308, 0.000000)">
                            <mask id="mask-8" fill="white">
                                <use xmlns:xlink="http://www.w3.org/1999/xlink" xlink:href="#path-7"></use>
                            </mask>
                            <g id="Clip-20"></g>
                            <path d="M0.199479538,17.195038 L0.199479538,0.490238 C0.199479538,0.324294923 0.333911846,0.189658 0.500264154,0.189658 L13.0045149,0.189658 C13.1706626,0.189658 13.3052995,0.324294923 13.3052995,0.490238 L13.3052995,3.70863338 C13.3052995,3.87478108 13.1706626,4.009418 13.0045149,4.009418 L4.57579338,4.009418 L4.57579338,7.04672877 L11.8161088,7.04672877 C11.9822565,7.04672877 12.1168934,7.18157031 12.1168934,7.34751338 L12.1168934,10.4897918 C12.1168934,10.6559395 11.9822565,10.7905765 11.8161088,10.7905765 L4.57579338,10.7905765 L4.57579338,13.6760626 L13.0045149,13.6760626 C13.1706626,13.6760626 13.3052995,13.8106995 13.3052995,13.9766426 L13.3052995,17.195038 C13.3052995,17.3611857 13.1706626,17.4958226 13.0045149,17.4958226 L0.500264154,17.4958226 C0.333911846,17.4958226 0.199479538,17.3611857 0.199479538,17.195038" id="Fill-19" fill="#FFFFFF" mask="url(#mask-8)"></path>
                        </g>
                    </g>
                </g>
            </g>
        </g>
    </g>
</svg>